<mxfile host="app.diagrams.net" modified="2020-04-01T12:54:40.840Z" agent="Mozilla/5.0 (Macintosh; Intel Mac OS X 10_15_2) AppleWebKit/537.36 (KHTML, like Gecko) Chrome/80.0.3987.149 Safari/537.36" etag="6r8MRBzc8ikBYS7D1jSq" version="12.8.5" type="github">
  <diagram id="6a731a19-8d31-9384-78a2-239565b7b9f0" name="Page-1">
    <mxGraphModel dx="2066" dy="1131" grid="1" gridSize="10" guides="1" tooltips="1" connect="1" arrows="1" fold="1" page="1" pageScale="1" pageWidth="1169" pageHeight="827" background="#ffffff" math="0" shadow="0">
      <root>
        <mxCell id="0" />
        <mxCell id="1" parent="0" />
        <mxCell id="4YUYzeoJhx_1y0wlQecb-212" value="" style="rounded=1;whiteSpace=wrap;html=1;" vertex="1" parent="1">
          <mxGeometry x="410" y="160" width="730" height="580" as="geometry" />
        </mxCell>
        <mxCell id="4YUYzeoJhx_1y0wlQecb-143" value="&lt;b&gt;Push-Acceptor&lt;/b&gt;" style="rounded=1;whiteSpace=wrap;html=1;fillColor=#f5f5f5;strokeColor=#666666;fontColor=#333333;" vertex="1" parent="1">
          <mxGeometry x="440" y="340" width="120" height="60" as="geometry" />
        </mxCell>
        <mxCell id="4YUYzeoJhx_1y0wlQecb-145" value="Push-Sender" style="rounded=1;whiteSpace=wrap;html=1;fontStyle=1;fillColor=#d5e8d4;strokeColor=#82b366;" vertex="1" parent="1">
          <mxGeometry x="840" y="340" width="120" height="60" as="geometry" />
        </mxCell>
        <mxCell id="4YUYzeoJhx_1y0wlQecb-146" value="Push-Token" style="rounded=1;whiteSpace=wrap;html=1;fontStyle=1;fillColor=#ffe6cc;strokeColor=#d79b00;" vertex="1" parent="1">
          <mxGeometry x="650" y="340" width="120" height="60" as="geometry" />
        </mxCell>
        <mxCell id="4YUYzeoJhx_1y0wlQecb-147" value="" style="endArrow=none;html=1;entryX=0.5;entryY=1;entryDx=0;entryDy=0;" edge="1" parent="1" target="4YUYzeoJhx_1y0wlQecb-143">
          <mxGeometry width="50" height="50" relative="1" as="geometry">
            <mxPoint x="500" y="670" as="sourcePoint" />
            <mxPoint x="500" y="490" as="targetPoint" />
          </mxGeometry>
        </mxCell>
        <mxCell id="4YUYzeoJhx_1y0wlQecb-149" value="" style="endArrow=none;html=1;entryX=0.5;entryY=1;entryDx=0;entryDy=0;" edge="1" parent="1">
          <mxGeometry width="50" height="50" relative="1" as="geometry">
            <mxPoint x="900" y="670" as="sourcePoint" />
            <mxPoint x="899.5" y="400" as="targetPoint" />
          </mxGeometry>
        </mxCell>
        <mxCell id="4YUYzeoJhx_1y0wlQecb-150" value="" style="endArrow=none;html=1;entryX=0.5;entryY=1;entryDx=0;entryDy=0;" edge="1" parent="1">
          <mxGeometry width="50" height="50" relative="1" as="geometry">
            <mxPoint x="710" y="670" as="sourcePoint" />
            <mxPoint x="709.5" y="400" as="targetPoint" />
          </mxGeometry>
        </mxCell>
        <mxCell id="4YUYzeoJhx_1y0wlQecb-174" value="&lt;b&gt;SQS 云&lt;/b&gt;" style="ellipse;shape=cloud;whiteSpace=wrap;html=1;fillColor=#dae8fc;strokeColor=#6c8ebf;" vertex="1" parent="1">
          <mxGeometry x="575" y="170" width="250" height="140" as="geometry" />
        </mxCell>
        <mxCell id="4YUYzeoJhx_1y0wlQecb-179" value="FCM 云" style="ellipse;shape=cloud;whiteSpace=wrap;html=1;fillColor=#fff2cc;strokeColor=#d6b656;" vertex="1" parent="1">
          <mxGeometry x="990" y="170" width="140" height="140" as="geometry" />
        </mxCell>
        <mxCell id="4YUYzeoJhx_1y0wlQecb-182" value="" style="endArrow=classic;html=1;" edge="1" parent="1">
          <mxGeometry width="50" height="50" relative="1" as="geometry">
            <mxPoint x="500" y="480" as="sourcePoint" />
            <mxPoint x="710" y="480" as="targetPoint" />
          </mxGeometry>
        </mxCell>
        <mxCell id="4YUYzeoJhx_1y0wlQecb-183" value="" style="shape=flexArrow;endArrow=classic;html=1;entryX=0.216;entryY=0.827;entryDx=0;entryDy=0;entryPerimeter=0;exitX=0.9;exitY=-0.067;exitDx=0;exitDy=0;exitPerimeter=0;" edge="1" parent="1" source="4YUYzeoJhx_1y0wlQecb-143" target="4YUYzeoJhx_1y0wlQecb-174">
          <mxGeometry width="50" height="50" relative="1" as="geometry">
            <mxPoint x="550" y="330" as="sourcePoint" />
            <mxPoint x="610" y="270" as="targetPoint" />
          </mxGeometry>
        </mxCell>
        <mxCell id="4YUYzeoJhx_1y0wlQecb-184" value="" style="shape=flexArrow;endArrow=classic;html=1;exitX=0.897;exitY=0.807;exitDx=0;exitDy=0;exitPerimeter=0;entryX=0.342;entryY=-0.067;entryDx=0;entryDy=0;entryPerimeter=0;" edge="1" parent="1" source="4YUYzeoJhx_1y0wlQecb-174" target="4YUYzeoJhx_1y0wlQecb-145">
          <mxGeometry width="50" height="50" relative="1" as="geometry">
            <mxPoint x="820" y="280" as="sourcePoint" />
            <mxPoint x="890" y="320" as="targetPoint" />
          </mxGeometry>
        </mxCell>
        <mxCell id="4YUYzeoJhx_1y0wlQecb-185" value="&lt;b&gt;3.push&lt;/b&gt;" style="text;html=1;strokeColor=none;fillColor=none;align=center;verticalAlign=middle;whiteSpace=wrap;rounded=0;" vertex="1" parent="1">
          <mxGeometry x="510" y="270" width="40" height="20" as="geometry" />
        </mxCell>
        <mxCell id="4YUYzeoJhx_1y0wlQecb-186" value="&lt;b&gt;3.consumer&lt;/b&gt;" style="text;html=1;align=center;verticalAlign=middle;resizable=0;points=[];autosize=1;" vertex="1" parent="1">
          <mxGeometry x="880" y="270" width="80" height="20" as="geometry" />
        </mxCell>
        <mxCell id="4YUYzeoJhx_1y0wlQecb-188" value="1.查找消息接收 tokens" style="text;html=1;strokeColor=none;fillColor=none;align=center;verticalAlign=middle;whiteSpace=wrap;rounded=0;" vertex="1" parent="1">
          <mxGeometry x="530" y="440" width="140" height="30" as="geometry" />
        </mxCell>
        <mxCell id="4YUYzeoJhx_1y0wlQecb-190" value="&lt;b&gt;4.push&lt;/b&gt;" style="text;html=1;strokeColor=none;fillColor=none;align=center;verticalAlign=middle;whiteSpace=wrap;rounded=0;" vertex="1" parent="1">
          <mxGeometry x="955" y="300" width="140" height="30" as="geometry" />
        </mxCell>
        <mxCell id="4YUYzeoJhx_1y0wlQecb-191" value="" style="endArrow=classic;html=1;" edge="1" parent="1">
          <mxGeometry width="50" height="50" relative="1" as="geometry">
            <mxPoint x="900" y="610" as="sourcePoint" />
            <mxPoint x="710" y="610" as="targetPoint" />
          </mxGeometry>
        </mxCell>
        <mxCell id="4YUYzeoJhx_1y0wlQecb-193" value="5.更新注册用户的 Tokens" style="text;html=1;strokeColor=none;fillColor=none;align=center;verticalAlign=middle;whiteSpace=wrap;rounded=0;" vertex="1" parent="1">
          <mxGeometry x="730" y="570" width="140" height="30" as="geometry" />
        </mxCell>
        <mxCell id="4YUYzeoJhx_1y0wlQecb-197" value="&lt;b&gt;运营平台&lt;/b&gt;" style="ellipse;whiteSpace=wrap;html=1;fillColor=#e1d5e7;strokeColor=#9673a6;" vertex="1" parent="1">
          <mxGeometry x="110" y="369" width="170" height="155" as="geometry" />
        </mxCell>
        <mxCell id="4YUYzeoJhx_1y0wlQecb-211" value="监控平台" style="rounded=1;whiteSpace=wrap;html=1;" vertex="1" parent="1">
          <mxGeometry x="465" y="670" width="490" height="60" as="geometry" />
        </mxCell>
        <mxCell id="4YUYzeoJhx_1y0wlQecb-217" value="" style="shape=flexArrow;endArrow=classic;startArrow=classic;html=1;entryX=0.13;entryY=0.77;entryDx=0;entryDy=0;entryPerimeter=0;exitX=1;exitY=0;exitDx=0;exitDy=0;" edge="1" parent="1" source="4YUYzeoJhx_1y0wlQecb-145" target="4YUYzeoJhx_1y0wlQecb-179">
          <mxGeometry width="50" height="50" relative="1" as="geometry">
            <mxPoint x="900" y="530" as="sourcePoint" />
            <mxPoint x="1010" y="530" as="targetPoint" />
          </mxGeometry>
        </mxCell>
        <mxCell id="4YUYzeoJhx_1y0wlQecb-222" value="&lt;b&gt;客户端&lt;/b&gt;" style="ellipse;whiteSpace=wrap;html=1;fillColor=#e1d5e7;strokeColor=#9673a6;" vertex="1" parent="1">
          <mxGeometry x="1270" y="377.5" width="170" height="155" as="geometry" />
        </mxCell>
        <mxCell id="4YUYzeoJhx_1y0wlQecb-225" value="" style="shape=flexArrow;endArrow=classic;startArrow=classic;html=1;exitX=1.012;exitY=0.439;exitDx=0;exitDy=0;exitPerimeter=0;entryX=0;entryY=0.478;entryDx=0;entryDy=0;entryPerimeter=0;" edge="1" parent="1" source="4YUYzeoJhx_1y0wlQecb-197" target="4YUYzeoJhx_1y0wlQecb-212">
          <mxGeometry width="50" height="50" relative="1" as="geometry">
            <mxPoint x="330" y="480" as="sourcePoint" />
            <mxPoint x="380" y="430" as="targetPoint" />
          </mxGeometry>
        </mxCell>
        <mxCell id="4YUYzeoJhx_1y0wlQecb-227" value="" style="shape=flexArrow;endArrow=classic;startArrow=classic;html=1;exitX=1.012;exitY=0.439;exitDx=0;exitDy=0;exitPerimeter=0;entryX=0;entryY=0.5;entryDx=0;entryDy=0;" edge="1" parent="1" target="4YUYzeoJhx_1y0wlQecb-222">
          <mxGeometry width="50" height="50" relative="1" as="geometry">
            <mxPoint x="1140" y="454.49500000000006" as="sourcePoint" />
            <mxPoint x="1267.96" y="454.69" as="targetPoint" />
          </mxGeometry>
        </mxCell>
        <mxCell id="4YUYzeoJhx_1y0wlQecb-228" value="&lt;h1&gt;&lt;b&gt;Push推送服务&lt;/b&gt;&lt;/h1&gt;" style="text;html=1;strokeColor=none;fillColor=none;align=center;verticalAlign=middle;whiteSpace=wrap;rounded=0;" vertex="1" parent="1">
          <mxGeometry x="620" y="70" width="230" height="20" as="geometry" />
        </mxCell>
      </root>
    </mxGraphModel>
  </diagram>
</mxfile>
